<?xml version="1.0" encoding="UTF-8"?>
<svg id="Layer_2" data-name="Layer 2" xmlns="http://www.w3.org/2000/svg" viewBox="0 0 324.4 324.35">
  <g id="Layer_1-2" data-name="Layer 1">
    <g id="RCF9YW">
      <g>
        <path d="M142.71,1.22c90.4-11.03,169.76,54.03,180.48,141.41,10.89,88.74-52.98,169.76-141.52,180.54C93.77,333.86,12.96,271.19,1.39,183.34-10.2,95.32,51.72,12.32,142.71,1.22ZM138.34,29.23C62.65,42.82,15.6,114.95,29.5,187.71c13.86,72.51,83.92,120.47,156.54,107.46,73.26-13.12,122.41-83.41,109.15-156.92-13.01-72.09-81.69-122.51-156.86-109.02Z"/>
        <path d="M149.26,181.69c.28-12.21,11.17-20.3,21.77-23.33,12.1-3.46,19.34-14.05,17.79-26.62-1.78-14.44-13.97-24.07-27.53-23.53-14.1.57-25.13,10.94-26.34,26.83l-26.54.03c-.34-29.15,22.75-52.22,50.62-53.83,28.51-1.65,53.91,19.13,56.85,48.6,2.6,26.1-14.21,48.69-39.48,55.28l-1.26,17.48-26.36-.05.49-20.87Z"/>
        <polygon points="175.78 243.21 148.83 243.25 148.77 216.21 175.56 216.2 175.78 243.21"/>
      </g>
    </g>
  </g>
</svg>